<svg width="128" height="98" viewBox="0 0 128 98" fill="none" xmlns="http://www.w3.org/2000/svg">
<path fill-rule="evenodd" clip-rule="evenodd" d="M63.0606 35.2553C48.8064 35.4113 34.4988 35.5678 20.2851 35C15.2589 35.2924 10.1916 35.2868 5.13974 35.2813C3.5046 35.2795 1.87108 35.2777 0.241086 35.286C0.257306 38.4771 0.189553 41.6851 0.121789 44.8938C0.0307778 49.2032 -0.0602599 53.5138 0.0520905 57.786C0.353761 63.059 0.274091 68.3963 0.194314 73.7407C0.0733689 81.8428 -0.0478126 89.9611 1.15909 97.896L88.5111 97.969L111.131 97.909C112.064 97.9072 113 97.9114 113.936 97.9156C117.221 97.9303 120.518 97.945 123.784 97.703L125.926 95.507C126.248 92.1104 126.19 88.6335 126.134 85.197C126.119 84.2941 126.104 83.3941 126.096 82.499C125.928 78.604 125.977 74.6727 126.026 70.7538C126.046 69.1128 126.067 67.474 126.071 65.841L126.086 35.309C108.24 35.058 90.3301 35.008 72.4811 35.16C69.3446 35.1866 66.2039 35.2209 63.0606 35.2553ZM62.9779 44.0047C62.6152 44.0127 62.2532 44.0293 61.8919 44.0547C61.4005 44.0893 60.9112 44.14 60.4238 44.2066C59.9358 44.2733 59.4509 44.356 58.9689 44.4547C58.4862 44.5533 58.0075 44.6677 57.5329 44.7977C57.0582 44.9283 56.5882 45.0743 56.1228 45.2357C55.6582 45.397 55.1992 45.5737 54.7459 45.7657C54.2925 45.9577 53.8458 46.1643 53.4058 46.3857C52.9658 46.607 52.5339 46.8423 52.1098 47.0917C51.6859 47.3417 51.2705 47.6053 50.8638 47.8827C50.4565 48.16 50.0592 48.4507 49.6719 48.7547C49.2845 49.058 48.9072 49.374 48.5398 49.7027C48.1732 50.0307 47.8179 50.3707 47.4739 50.7227C47.1299 51.0747 46.7975 51.4377 46.4769 51.8117C46.1569 52.1857 45.8492 52.57 45.5538 52.9647C45.2592 53.3587 44.9779 53.7623 44.7099 54.1757C44.4412 54.5883 44.1869 55.0093 43.9469 55.4387C43.7062 55.8687 43.4802 56.306 43.2688 56.7507C43.0575 57.1953 42.8608 57.6463 42.6788 58.1037C42.4975 58.5617 42.3312 59.025 42.1799 59.4937C42.0285 59.9623 41.8928 60.4353 41.7728 60.9127C41.6535 61.3907 41.5495 61.8717 41.4609 62.3557C41.3729 62.8403 41.3009 63.3273 41.2449 63.8167C41.1895 64.306 41.1498 64.7967 41.1258 65.2887C41.1025 65.78 41.0952 66.272 41.1039 66.7647C41.1132 67.2567 41.1385 67.748 41.1799 68.2387C41.2212 68.7293 41.2789 69.2183 41.3529 69.7057C41.4269 70.1923 41.5165 70.676 41.6218 71.1567C41.7278 71.638 41.8492 72.115 41.9859 72.5877C42.1232 73.0603 42.2762 73.5283 42.4448 73.9917C42.6128 74.4543 42.7959 74.911 42.9939 75.3616C43.1925 75.8123 43.4055 76.256 43.6329 76.6927C43.8602 77.1293 44.1019 77.558 44.3579 77.9787C44.6139 78.3993 44.8835 78.811 45.1669 79.2137C45.4502 79.6163 45.7462 80.0093 46.0549 80.3927C46.3642 80.776 46.6855 81.1487 47.0188 81.5107C47.3528 81.8727 47.6982 82.2233 48.0549 82.5627C48.4122 82.902 48.7799 83.229 49.1579 83.5437C49.5365 83.8583 49.9252 84.1603 50.3238 84.4497C50.7218 84.739 51.1292 85.0147 51.5459 85.2767C51.9625 85.5393 52.3875 85.7877 52.8208 86.0217C53.2535 86.2557 53.6939 86.4753 54.1419 86.6806C54.5892 86.886 55.0429 87.076 55.5029 87.2507C55.9629 87.426 56.4282 87.586 56.8989 87.7307C57.3695 87.8747 57.8445 88.0033 58.3238 88.1167C58.8032 88.2293 59.2855 88.3263 59.7709 88.4077C60.2562 88.4883 60.7438 88.5533 61.2338 88.6027C61.7238 88.6513 62.2149 88.684 62.7069 88.7007C63.1989 88.7167 63.6909 88.7167 64.1828 88.7007C64.6749 88.6847 65.1658 88.6523 65.6558 88.6037C66.0165 88.5676 66.3762 88.5233 66.7348 88.4707C67.0929 88.4173 67.4499 88.3553 67.8059 88.2847C68.1612 88.214 68.5145 88.1347 68.8659 88.0467C69.2179 87.9587 69.5672 87.8623 69.9139 87.7577C70.2612 87.653 70.6055 87.54 70.9469 87.4187C71.2882 87.2967 71.6265 87.1667 71.9618 87.0287C72.2965 86.8907 72.6279 86.7447 72.9559 86.5907C73.2839 86.4367 73.6082 86.2747 73.9288 86.1047C74.2488 85.9347 74.5645 85.757 74.8758 85.5717C75.1872 85.3863 75.4939 85.1937 75.7959 84.9937C76.0985 84.793 76.3959 84.5853 76.6879 84.3707C76.9799 84.156 77.2665 83.9343 77.5479 83.7057C77.8285 83.4777 78.1039 83.2427 78.3739 83.0007C78.6439 82.758 78.9078 82.5093 79.1658 82.2547C79.4232 82 79.6745 81.739 79.9198 81.4717C80.1645 81.205 80.4028 80.9323 80.6348 80.6537C80.8662 80.375 81.0909 80.0907 81.3089 79.8007C81.5269 79.5113 81.7379 79.2167 81.9418 78.9167C82.1452 78.6167 82.3412 78.312 82.5299 78.0027C82.7192 77.6933 82.9005 77.3793 83.0738 77.0607C83.2472 76.7427 83.4128 76.4203 83.5708 76.0937C83.7289 75.7677 83.8785 75.438 84.0199 75.1047C84.1619 74.7707 84.2955 74.4337 84.4209 74.0937C84.5462 73.7537 84.6635 73.4107 84.7728 73.0647C84.8815 72.7187 84.9815 72.3703 85.0729 72.0197C85.1649 71.669 85.2482 71.3163 85.3229 70.9617C85.3975 70.607 85.4635 70.2507 85.5209 69.8927C85.5782 69.5347 85.6269 69.1757 85.6669 68.8157C85.7068 68.455 85.7378 68.094 85.7598 67.7327C85.7825 67.3707 85.7962 67.0083 85.8009 66.6457C85.8055 66.2837 85.8012 65.9213 85.7879 65.5587C85.7752 65.1967 85.7535 64.835 85.7229 64.4736C85.6922 64.1123 85.6528 63.752 85.6048 63.3927C85.5568 63.0333 85.5002 62.6753 85.4349 62.3186C85.3695 61.9626 85.2955 61.608 85.2128 61.2547C85.1302 60.902 85.0389 60.5513 84.9389 60.2027C84.8389 59.854 84.7305 59.508 84.6138 59.1647C84.4978 58.822 84.3732 58.482 84.2399 58.1447C84.1065 57.8073 83.9652 57.4737 83.8158 57.1437C83.6665 56.813 83.5092 56.4863 83.3439 56.1637C83.1792 55.841 83.0062 55.5227 82.8248 55.2087C82.6442 54.8947 82.4562 54.585 82.2608 54.2796C82.0649 53.9743 81.8618 53.6743 81.6518 53.3797C81.4412 53.0843 81.2235 52.7943 80.9989 52.5097C80.7749 52.225 80.5435 51.946 80.3049 51.6727C80.0669 51.3993 79.8225 51.132 79.5719 50.8707C79.3205 50.6093 79.0632 50.354 78.7999 50.1047C78.5365 49.856 78.2672 49.6137 77.9919 49.3777C77.7165 49.1417 77.4359 48.9127 77.1499 48.6907C76.8632 48.4687 76.5715 48.2537 76.2749 48.0457C75.9782 47.8377 75.6765 47.637 75.3699 47.4436C75.0632 47.2503 74.7522 47.0647 74.4368 46.8867C74.1208 46.7087 73.8009 46.5383 73.4769 46.3757C73.1529 46.213 72.8252 46.0583 72.4939 45.9117C72.1625 45.765 71.8279 45.6263 71.4899 45.4957C71.1512 45.3657 70.8099 45.2437 70.4659 45.1297C70.1219 45.0157 69.7752 44.9103 69.4259 44.8137C69.0765 44.717 68.7252 44.6287 68.3718 44.5487C68.0185 44.4687 67.6632 44.3973 67.3059 44.3347C66.9492 44.2727 66.5912 44.219 66.2319 44.1737C65.8719 44.1283 65.5112 44.092 65.1499 44.0647C64.7885 44.0373 64.4269 44.0187 64.0649 44.0087C63.7022 43.9987 63.3399 43.9973 62.9779 44.0047Z" fill="#F0F0F0"/>
<path d="M62.4253 51.159C64.312 51.1283 66.1983 51.0753 68.0843 51C68.215 54.3667 68.2743 57.7347 68.2623 61.104L78.1383 61.022C78.2513 64.385 78.2093 67.765 78.2233 71.13L68.2133 71.108C68.2423 74.345 68.4173 77.665 68.1423 80.888C67.4383 81.272 66.8753 81.173 66.0943 81.163C63.571 81.163 61.0477 81.1427 58.5243 81.102L58.4563 71.136L49.1003 71.066L49.2963 61.227C52.3653 61.145 55.4443 61.167 58.5153 61.138C58.4627 57.8487 58.484 54.56 58.5793 51.272L62.4253 51.159Z" fill="#F0F0F0"/>
<path d="M76.563 0.118759C80.705 0.0987594 84.7361 -0.10125 88.7511 1.08075C89.3491 6.46675 89.1281 11.9477 89.0651 17.3587L110.545 17.3238C114.994 17.3168 119.635 17.1038 124.055 17.6118C125.038 18.3748 126.006 19.1628 127.053 19.8358C127.217 23.7448 127.171 27.6468 127.131 31.5578L65.77 31.7538C52.604 31.6868 39.316 31.2377 26.163 31.7527C17.55 31.9937 8.80204 31.5748 0.17504 31.5478C0.0703731 28.4478 0.0756977 25.3478 0.191031 22.2478C1.6797 20.6244 3.18837 19.0194 4.71703 17.4328C16.613 17.3148 28.5091 17.3131 40.4051 17.4277C40.4781 12.1167 40.33 6.80976 40.515 1.49976C47.181 -0.913244 68.051 0.374759 76.563 0.118759Z" fill="#F0F0F0"/>
</svg>
