<svg width="114" height="61" viewBox="0 0 114 61" fill="none" xmlns="http://www.w3.org/2000/svg">
<path d="M61.2831 0.271004C62.6901 0.224004 64.1941 0.0860006 65.5931 0.222001C66.2761 0.289001 66.9621 0.549999 67.5671 0.862999C74.5311 4.465 81.3021 8.806 88.0931 12.743C94.9271 16.704 102.048 20.426 108.698 24.674C109.904 25.445 111.293 26.261 112.147 27.434C112.951 28.54 113.31 30.312 112.899 31.637C111.911 34.82 97.0011 42.41 93.4941 44.426L75.9941 54.544C72.8561 56.375 69.6921 58.517 66.4041 60.037C65.6351 60.393 64.6811 60.853 63.8081 60.686C61.7991 60.3 60.0261 57.852 58.7921 56.353C58.4731 52.983 58.6191 49.51 58.6151 46.123L58.6011 28.723L58.5711 13.906C58.5681 10.856 58.3331 7.505 58.8631 4.497C59.1441 2.903 60.3571 1.557 61.2831 0.271004Z" fill="#C2C1C1"/>
<path d="M2.92903 0.234976C4.02803 0.186976 5.24803 0.0659719 6.32803 0.297972C9.79803 1.04497 24.16 10.106 28.118 12.389C34.926 16.315 42.006 20.04 48.628 24.259C49.711 24.949 51.864 26.178 52.447 27.317C53.137 28.663 53.278 31.082 52.805 32.513C51.918 35.196 37.543 42.491 34.225 44.37C29.926 46.868 8.65403 59.814 5.63103 60.6C3.75303 61.089 1.55903 59.224 0.0430298 58.271L0.0300293 2.82798C0.965029 1.90998 1.91703 1.06698 2.92903 0.234976Z" fill="#C2C1C1"/>
</svg>
