<svg width="116" height="144" viewBox="0 0 116 144" fill="none" xmlns="http://www.w3.org/2000/svg">
<path fill-rule="evenodd" clip-rule="evenodd" d="M50.2281 0.300653C62.7981 -0.683356 75.9722 0.814661 88.1831 3.82067C94.3011 5.32565 111.625 9.95266 114.517 15.4027C115.437 17.1367 115.11 47.2417 114.917 51.0867C114.652 55.4853 114.233 59.869 113.658 64.2377C112.94 69.9177 111.633 75.6227 110.052 81.1237C103.944 102.378 92.0531 121.514 73.8512 134.419C70.3692 136.887 66.6035 138.973 62.8743 141.038L62.8321 141.062C61.0852 141.91 59.3651 142.628 57.5282 143.259C47.1582 139.94 35.6261 130.991 28.1681 123.139C10.7691 104.822 2.37816 79.7726 0.322128 54.9817C-0.0433507 50.5764 -0.00965931 46.1057 0.023788 41.662V41.6606V41.6592V41.6578C0.0339198 40.3148 0.0440516 38.9742 0.0430751 37.6387C0.0417323 35.6522 0.0317225 33.6639 0.0217128 31.6746V31.6717V31.6688C-0.00563099 26.2696 -0.0329747 20.8641 0.113143 15.4747C0.140609 15.4418 0.167953 15.4087 0.195175 15.3755L0.25035 15.3087L0.273422 15.281C0.301742 15.2472 0.330184 15.2137 0.359115 15.1807C8.16014 6.19766 38.1241 0.986627 50.2281 0.300653ZM50.8436 13.3495C57.3296 12.6275 64.7276 13.1245 71.2107 13.9295C76.4186 14.5755 100.368 19.3025 102.627 22.8635C103.661 24.4935 103.026 52.8805 102.724 56.5815C102.333 61.8695 101.577 67.1045 100.457 72.2865C96.6976 89.9555 88.2637 107.179 74.8476 119.497C70.9866 123.04 66.8357 125.94 62.4586 128.784C60.8556 129.729 59.2706 130.547 57.5647 131.289C57.508 131.266 57.4515 131.244 57.3951 131.221C57.3276 131.194 57.2602 131.167 57.193 131.139C57.1202 131.109 57.0477 131.078 56.9753 131.048C56.9223 131.025 56.8695 131.002 56.8166 130.979C53.9407 129.746 51.2286 127.886 48.6526 126.115C35.3376 116.959 25.6146 103.8 19.7206 88.8545C18.6166 86.0312 17.63 83.1672 16.7606 80.2625C15.892 77.3585 15.1433 74.4235 14.5146 71.4575C13.886 68.4922 13.3796 65.5058 12.9956 62.4985C12.6123 59.4911 12.3523 56.4732 12.2156 53.4445C12.0338 49.2474 12.0715 45.0175 12.1091 40.7944V40.7909V40.7874C12.1299 38.4615 12.1506 36.1377 12.1346 33.8225C12.1318 33.42 12.1119 32.8302 12.0882 32.1282C11.9872 29.1244 11.817 24.067 12.6146 22.8455C13.5561 21.4031 16.4945 20.5059 18.4979 19.8942C18.8349 19.7913 19.1455 19.6965 19.4156 19.6085C29.6936 16.2585 40.0397 14.0075 50.8436 13.3495ZM16.8346 25.6065C16.8329 28.1943 16.8059 30.7928 16.7789 33.3963C16.6954 41.432 16.6116 49.5154 17.2687 57.4785C18.9586 77.9405 26.4886 98.8435 41.1416 113.615C43.5736 116.044 46.1583 118.298 48.8956 120.376C51.6329 122.455 54.4977 124.34 57.4896 126.031L59.9286 124.751C79.7436 112.006 90.8166 94.2925 95.7616 71.6115C98.5777 58.6945 98.4676 45.6392 98.357 32.5283C98.3376 30.2243 98.3182 27.9185 98.3147 25.6115C84.3586 20.2865 69.1327 17.3575 54.1676 17.9645C41.4516 18.5725 28.7126 20.8825 16.8346 25.6065ZM52.8342 35.8896C52.5642 36.2832 52.319 36.6408 52.1034 36.9326C51.7635 36.8495 51.4098 36.7543 51.047 36.6566C49.4846 36.2361 47.754 35.7703 46.2453 36.0316C45.3623 36.1846 45.0293 36.5506 44.5403 37.2646C44.1948 39.357 45.6188 41.6307 46.8251 43.5568C47.0848 43.9716 47.3346 44.3703 47.5543 44.7476C48.5803 47.1646 49.3954 49.5866 50.1874 52.0866C50.464 53.6786 50.7286 55.2723 50.9813 56.8676C47.6974 56.4466 44.4143 55.8056 41.3133 54.6156C40.4108 54.2695 39.0813 53.5025 37.6853 52.6971C35.5642 51.4734 33.2897 50.1611 32.1263 50.1026C31.5653 50.0746 30.8943 50.4296 30.5533 50.8576C29.4482 52.2443 30.1767 55.0434 30.6943 57.0321C30.7944 57.417 30.8867 57.7715 30.9563 58.0796C30.5962 58.3437 30.2257 58.607 29.852 58.8725C28.6537 59.7241 27.4228 60.5988 26.3983 61.5966C25.6433 62.3326 24.8633 63.3426 25.0204 64.4706C25.2795 66.3432 28.0538 68.2165 29.9824 69.5188C30.3752 69.784 30.733 70.0256 31.0273 70.2386C30.9425 70.5712 30.8518 70.9074 30.7605 71.2461C30.4768 72.2975 30.187 73.372 30.0493 74.4286C29.8854 75.6956 29.9383 76.6006 30.7423 77.6186C31.4324 78.0396 31.9214 78.2066 32.7294 77.9676C34.144 77.5497 35.6426 76.6404 37.048 75.7877C37.5997 75.4529 38.1371 75.1268 38.6493 74.8426C42.3193 72.8056 46.7733 71.8726 50.9093 71.3846C50.5183 74.7146 49.8594 77.8816 48.6144 81.0056C48.315 81.7573 47.6821 82.8872 46.9899 84.1231C45.6865 86.4502 44.1728 89.1527 44.2793 90.4126C44.3423 91.1586 44.6893 91.5376 45.2113 92.0216C46.8319 92.657 49.0047 92.1236 50.8685 91.6659C51.3074 91.5582 51.729 91.4547 52.1223 91.3716C52.381 91.7248 52.6378 92.0831 52.8955 92.4425C53.6659 93.517 54.4436 94.6017 55.2993 95.5916C56.0254 96.4316 57.0713 97.3276 58.2573 97.2636C60.2002 97.1573 62.2093 94.3058 63.584 92.3548C63.865 91.9561 64.1194 91.595 64.3413 91.3026C64.6732 91.386 65.0083 91.4749 65.3453 91.5643C66.367 91.8354 67.407 92.1112 68.4333 92.2526C69.6903 92.4266 70.5564 92.3626 71.5943 91.6106C72.0483 90.8616 72.2623 90.3836 72.0063 89.5046C71.6007 88.1103 70.702 86.6315 69.8528 85.2342C69.4729 84.6091 69.1029 84.0003 68.7914 83.4226C66.8113 79.7526 65.9524 75.4206 65.3943 71.3256C68.9803 71.7606 72.3323 72.5506 75.6683 73.9616C76.3139 74.2346 77.2822 74.7759 78.3558 75.3761C80.5698 76.6138 83.2318 78.1019 84.4353 78.0036C85.1953 77.9416 85.5693 77.6156 86.0674 77.0846C86.6643 75.3802 86.1528 73.2928 85.6962 71.4291C85.5913 71.001 85.4892 70.5847 85.4043 70.1876C85.7834 69.9111 86.1766 69.6355 86.574 69.357C87.7788 68.5124 89.0218 67.641 90.0303 66.6356C90.7473 65.9206 91.4474 64.9886 91.3484 63.9126C91.1717 61.9922 88.4101 60.1197 86.4918 58.819C86.1077 58.5586 85.7573 58.321 85.4684 58.1106C85.7036 56.9386 85.9264 55.7643 86.1363 54.5876C86.3873 53.1266 86.5023 51.8856 85.6133 50.6276C84.8053 50.1846 84.4573 50.0696 83.5653 50.3536C82.0979 50.8206 80.6285 51.6805 79.2043 52.5139C78.5458 52.8993 77.8968 53.279 77.2623 53.6116C73.6283 55.5156 69.4643 56.3196 65.4424 56.9326C66.1483 50.7456 67.8324 46.7636 70.7473 41.3136C70.8345 41.1509 70.9347 40.9744 71.0406 40.788C71.5806 39.8379 72.2678 38.6284 72.1123 37.6536C72.0193 37.0716 71.6003 36.5356 71.0793 36.2746C69.5526 35.5079 67.1108 36.1815 65.2781 36.6872C64.9355 36.7817 64.6144 36.8703 64.3243 36.9426C64.0552 36.583 63.7878 36.2175 63.5195 35.8506C62.7222 34.7603 61.9158 33.6577 61.0254 32.6626C60.2764 31.8266 59.2403 30.9276 58.0393 31.0046C56.098 31.131 54.1656 33.9484 52.8342 35.8896ZM55.5663 59.7856C56.8993 55.8736 53.3973 45.5066 51.4424 41.8276C51.6443 41.8256 51.8463 41.8186 52.0483 41.8206C52.1521 41.8214 52.2557 41.825 52.3592 41.8285C52.6492 41.8385 52.9385 41.8484 53.2273 41.7976C54.8739 41.5078 56.3183 39.4036 57.3988 37.8297C57.6084 37.5243 57.8043 37.2389 57.9853 36.9906C58.8033 37.4171 59.4291 38.3386 60.0522 39.2562C60.7484 40.2814 61.4413 41.3018 62.3954 41.6216C62.7712 41.7476 63.3299 41.785 63.8356 41.8188C64.0685 41.8344 64.29 41.8492 64.4773 41.8716C64.6449 42.2094 63.7026 44.6067 63.0132 46.3609C62.7066 47.1408 62.4501 47.7935 62.3633 48.0816C61.4844 51.0036 59.5403 57.6286 61.1733 60.3676C63.066 63.5438 70.4809 61.008 75.583 59.2632C77.9264 58.4618 79.782 57.8272 80.3904 57.9896C80.4073 58.1786 80.4233 58.3686 80.4483 58.5576C80.7358 60.7292 82.7889 62.167 84.586 63.4257C84.9266 63.6641 85.2579 63.8962 85.5663 64.1256C85.2972 64.3317 84.9348 64.5855 84.5292 64.8696C83.1709 65.8209 81.3275 67.112 80.8793 68.0876C80.703 68.4717 80.603 68.8899 80.5024 69.3107C80.4142 69.6797 80.3254 70.0508 80.1843 70.4026C79.1791 70.3022 78.0683 69.8213 77.0187 69.3667C76.5417 69.1602 76.0775 68.9591 75.6413 68.8016C72.4374 67.6446 65.7793 65.7686 62.5163 66.7396C61.7683 66.9626 61.2663 67.3436 60.9053 68.0466C59.3846 71.0044 61.7312 77.8493 63.3871 82.6791C63.8686 84.0838 64.2917 85.318 64.5443 86.2366C64.3553 86.2772 64.1095 86.3139 63.845 86.3534C63.2485 86.4424 62.5565 86.5456 62.2053 86.7396C61.2785 87.252 60.4191 88.399 59.6051 89.4851C59.1402 90.1052 58.6904 90.7056 58.2513 91.1566L58.0323 91.3776C57.8695 91.1436 57.7056 90.9032 57.5397 90.6598C56.8475 89.6445 56.121 88.5786 55.2973 87.7236C54.6013 87.0006 53.8863 86.4176 52.8413 86.4066C52.4895 86.4026 52.4029 86.4238 52.3252 86.4062C52.2491 86.3889 52.1815 86.3344 51.8823 86.1826C51.8122 85.2355 52.4407 83.8534 52.9868 82.6521C53.2203 82.1385 53.4387 81.658 53.5813 81.2586C54.6194 78.3456 56.6703 71.2386 55.6413 68.3306C55.4173 67.6976 54.9534 67.2466 54.3563 66.9636C50.662 65.2142 42.571 68.1945 37.9477 69.8975C37.3911 70.1025 36.8847 70.2891 36.4424 70.4466C36.1688 70.3708 36.0784 70.3843 36.0412 70.3461C36.0094 70.3131 36.017 70.2419 35.9813 70.0426C35.4991 67.3513 33.9333 66.3137 31.9899 65.0258C31.6037 64.7699 31.2027 64.5042 30.7923 64.2136C31.031 64.028 31.3573 63.7933 31.7294 63.5256C33.1673 62.4911 35.2894 60.9646 35.6803 59.8786C35.772 59.6227 35.7851 59.3339 35.7984 59.0384C35.813 58.7184 35.8279 58.3907 35.9433 58.0886C36.1512 57.5455 38.4612 58.4965 39.3725 58.8716C39.5 58.9241 39.6001 58.9653 39.6633 58.9896C42.8613 60.2176 50.7943 62.7946 53.9064 61.5556C54.7234 61.2306 55.2843 60.6116 55.5663 59.7856Z" fill="#00FEFE" fill-opacity="0.988235"/>
</svg>
