<svg width="237" height="253" viewBox="0 0 237 253" fill="none" xmlns="http://www.w3.org/2000/svg">
<path d="M192.25 72.8832C180.945 57.4772 165.048 46.0499 146.843 40.2419C128.638 34.4339 109.061 34.5441 90.9226 40.5565C72.7841 46.569 57.0174 58.1746 45.8862 73.7068C34.755 89.2391 28.8319 107.899 28.9674 127.008C29.1029 146.116 35.2899 164.69 46.6403 180.063C57.9906 195.436 73.9203 206.817 92.1422 212.571C110.364 218.326 129.941 218.159 148.062 212.093C166.183 206.028 181.915 194.376 193.001 178.811" stroke="#CFCECE" stroke-width="18" stroke-linecap="round"/>
<path d="M111 126.5H214M214 126.5L182.349 95M214 126.5L182.349 158" stroke="#CFCECE" stroke-width="18" stroke-linecap="round" stroke-linejoin="round"/>
</svg>
